<svg width="478" height="480" viewBox="0 0 463 463" fill="none" xmlns="http://www.w3.org/2000/svg">
   <style>
      .rotate-elem{
         animation-name:rotate;
         animation-timing-function: linear;
         animation-duration: 20s;
         animation-iteration-count: infinite;
         transform-origin: center;
      }
      .rotate-elem-slow{
          animation-name:rotate;
          animation-timing-function:linear;
          animation-duration: 32s;
          animation-iteration-count: infinite;
          transform-origin: center;
          animation-direction: reverse;
          
      }
      .rotate-elem-lg{
          animation-name:rotate;
         animation-timing-function: linear;
         animation-duration:16s;
         animation-iteration-count: infinite;
         transform-origin: center;  
      }

      @keyframes rotate {
          from{
              transform:rotate(0deg);
          }
          to{
              transform: rotate(360deg);
          }
      }
   </style>
   <g class="rotate-elem-lg">
      <circle data-figma-bg-blur-radius="62.5615" cx="232" cy="232" r="214.5" fill="white" fill-opacity="0.04" stroke="#7E7E7E"/>
      <circle cx="232" cy="17" r="16" fill="#252525" stroke="#7E7E7E"/>
      <path d="M227 22.4851C227 20.2791 228.788 18.4908 230.994 18.4908C233.2 18.4908 234.989 20.2791 234.989 22.4851H227ZM230.994 17.9915C229.339 17.9915 227.999 16.6509 227.999 14.9957C227.999 13.3406 229.339 12 230.994 12C232.649 12 233.99 13.3406 233.99 14.9957C233.99 16.6509 232.649 17.9915 230.994 17.9915ZM234.67 19.1065C236.211 19.5002 237.369 20.8491 237.477 22.4851H235.987C235.987 21.182 235.488 19.9956 234.67 19.1065ZM233.661 17.9699C234.476 17.2386 234.989 16.1771 234.989 14.9957C234.989 14.2881 234.805 13.6234 234.482 13.0469C235.625 13.2752 236.486 14.2841 236.486 15.495C236.486 16.8743 235.369 17.9915 233.99 17.9915C233.878 17.9915 233.768 17.9841 233.661 17.9699Z" fill="white"/>
      <circle cx="232" cy="446" r="16" fill="#252525" stroke="#7E7E7E"/>
      <path d="M227 451.485C227 449.279 228.788 447.491 230.994 447.491C233.2 447.491 234.989 449.279 234.989 451.485H227ZM230.994 446.991C229.339 446.991 227.999 445.651 227.999 443.996C227.999 442.341 229.339 441 230.994 441C232.649 441 233.99 442.341 233.99 443.996C233.99 445.651 232.649 446.991 230.994 446.991ZM234.67 448.106C236.211 448.5 237.369 449.849 237.477 451.485H235.987C235.987 450.182 235.488 448.996 234.67 448.106ZM233.661 446.97C234.476 446.239 234.989 445.177 234.989 443.996C234.989 443.288 234.805 442.623 234.482 442.047C235.625 442.275 236.486 443.284 236.486 444.495C236.486 445.874 235.369 446.991 233.99 446.991C233.878 446.991 233.768 446.984 233.661 446.97Z" fill="white"/>
      <circle cx="446" cy="232" r="16" fill="#252525" stroke="#7E7E7E"/>
      <path d="M441 237.485C441 235.279 442.788 233.491 444.994 233.491C447.2 233.491 448.989 235.279 448.989 237.485H441ZM444.994 232.991C443.339 232.991 441.999 231.651 441.999 229.996C441.999 228.341 443.339 227 444.994 227C446.649 227 447.99 228.341 447.99 229.996C447.99 231.651 446.649 232.991 444.994 232.991ZM448.67 234.106C450.211 234.5 451.369 235.849 451.477 237.485H449.987C449.987 236.182 449.488 234.996 448.67 234.106ZM447.661 232.97C448.476 232.239 448.989 231.177 448.989 229.996C448.989 229.288 448.805 228.623 448.482 228.047C449.625 228.275 450.486 229.284 450.486 230.495C450.486 231.874 449.369 232.991 447.99 232.991C447.878 232.991 447.768 232.984 447.661 232.97Z" fill="white"/>
      <circle cx="17" cy="232" r="16" fill="#252525" stroke="#7E7E7E"/>
      <path d="M12 237.485C12 235.279 13.7883 233.491 15.9943 233.491C18.2003 233.491 19.9886 235.279 19.9886 237.485H12ZM15.9943 232.991C14.3392 232.991 12.9986 231.651 12.9986 229.996C12.9986 228.341 14.3392 227 15.9943 227C17.6495 227 18.99 228.341 18.99 229.996C18.99 231.651 17.6495 232.991 15.9943 232.991ZM19.6705 234.106C21.211 234.5 22.3692 235.849 22.4769 237.485H20.9872C20.9872 236.182 20.488 234.996 19.6705 234.106ZM18.6606 232.97C19.4757 232.239 19.9886 231.177 19.9886 229.996C19.9886 229.288 19.8046 228.623 19.4818 228.047C20.6254 228.275 21.4865 229.284 21.4865 230.495C21.4865 231.874 20.3693 232.991 18.99 232.991C18.8783 232.991 18.7684 232.984 18.6606 232.97Z" fill="white"/>
   </g>
   <g class="rotate-elem-slow">
      <circle cx="231.552" cy="231.552" r="162.052" fill="white" fill-opacity="0.04" stroke="#7E7E7E"/>
      <circle cx="394" cy="232" r="16" fill="#252525" stroke="#7E7E7E"/>
      <path d="M389 237.485C389 235.279 390.788 233.491 392.994 233.491C395.2 233.491 396.989 235.279 396.989 237.485H389ZM392.994 232.991C391.339 232.991 389.999 231.651 389.999 229.996C389.999 228.341 391.339 227 392.994 227C394.649 227 395.99 228.341 395.99 229.996C395.99 231.651 394.649 232.991 392.994 232.991ZM396.67 234.106C398.211 234.5 399.369 235.849 399.477 237.485H397.987C397.987 236.182 397.488 234.996 396.67 234.106ZM395.661 232.97C396.476 232.239 396.989 231.177 396.989 229.996C396.989 229.288 396.805 228.623 396.482 228.047C397.625 228.275 398.486 229.284 398.486 230.495C398.486 231.874 397.369 232.991 395.99 232.991C395.878 232.991 395.768 232.984 395.661 232.97Z" fill="white"/>
      <circle cx="232" cy="69" r="16" fill="#252525" stroke="#7E7E7E"/>
      <path d="M227 74.4851C227 72.2791 228.788 70.4908 230.994 70.4908C233.2 70.4908 234.989 72.2791 234.989 74.4851H227ZM230.994 69.9915C229.339 69.9915 227.999 68.6509 227.999 66.9957C227.999 65.3406 229.339 64 230.994 64C232.649 64 233.99 65.3406 233.99 66.9957C233.99 68.6509 232.649 69.9915 230.994 69.9915ZM234.67 71.1065C236.211 71.5002 237.369 72.8491 237.477 74.4851H235.987C235.987 73.182 235.488 71.9956 234.67 71.1065ZM233.661 69.9699C234.476 69.2386 234.989 68.1771 234.989 66.9957C234.989 66.2881 234.805 65.6234 234.482 65.0469C235.625 65.2752 236.486 66.2841 236.486 67.495C236.486 68.8743 235.369 69.9915 233.99 69.9915C233.878 69.9915 233.768 69.9841 233.661 69.9699Z" fill="white"/>
      <circle cx="232" cy="394" r="16" fill="#252525" stroke="#7E7E7E"/>
      <path d="M227 399.485C227 397.279 228.788 395.491 230.994 395.491C233.2 395.491 234.989 397.279 234.989 399.485H227ZM230.994 394.991C229.339 394.991 227.999 393.651 227.999 391.996C227.999 390.341 229.339 389 230.994 389C232.649 389 233.99 390.341 233.99 391.996C233.99 393.651 232.649 394.991 230.994 394.991ZM234.67 396.106C236.211 396.5 237.369 397.849 237.477 399.485H235.987C235.987 398.182 235.488 396.996 234.67 396.106ZM233.661 394.97C234.476 394.239 234.989 393.177 234.989 391.996C234.989 391.288 234.805 390.623 234.482 390.047C235.625 390.275 236.486 391.284 236.486 392.495C236.486 393.874 235.369 394.991 233.99 394.991C233.878 394.991 233.768 394.984 233.661 394.97Z" fill="white"/>
      <circle cx="69" cy="232" r="16" fill="#252525" stroke="#7E7E7E"/>
      <path d="M64 237.485C64 235.279 65.7883 233.491 67.9943 233.491C70.2003 233.491 71.9886 235.279 71.9886 237.485H64ZM67.9943 232.991C66.3392 232.991 64.9986 231.651 64.9986 229.996C64.9986 228.341 66.3392 227 67.9943 227C69.6495 227 70.99 228.341 70.99 229.996C70.99 231.651 69.6495 232.991 67.9943 232.991ZM71.6705 234.106C73.211 234.5 74.3692 235.849 74.4769 237.485H72.9872C72.9872 236.182 72.488 234.996 71.6705 234.106ZM70.6606 232.97C71.4757 232.239 71.9886 231.177 71.9886 229.996C71.9886 229.288 71.8046 228.623 71.4818 228.047C72.6254 228.275 73.4865 229.284 73.4865 230.495C73.4865 231.874 72.3693 232.991 70.99 232.991C70.8783 232.991 70.7684 232.984 70.6606 232.97Z" fill="white"/>
   </g>
   <g class="rotate-elem">
      <circle cx="232" cy="232" r="109.5" fill="white" fill-opacity="0.05" stroke="#7E7E7E"/>
      <circle cx="122" cy="232" r="16" fill="#252525" stroke="#7E7E7E"/>
      <path d="M117 237.485C117 235.279 118.788 233.491 120.994 233.491C123.2 233.491 124.989 235.279 124.989 237.485H117ZM120.994 232.991C119.339 232.991 117.999 231.651 117.999 229.996C117.999 228.341 119.339 227 120.994 227C122.649 227 123.99 228.341 123.99 229.996C123.99 231.651 122.649 232.991 120.994 232.991ZM124.67 234.106C126.211 234.5 127.369 235.849 127.477 237.485H125.987C125.987 236.182 125.488 234.996 124.67 234.106ZM123.661 232.97C124.476 232.239 124.989 231.177 124.989 229.996C124.989 229.288 124.805 228.623 124.482 228.047C125.625 228.275 126.486 229.284 126.486 230.495C126.486 231.874 125.369 232.991 123.99 232.991C123.878 232.991 123.768 232.984 123.661 232.97Z" fill="white"/>
      <circle cx="232" cy="122" r="16" fill="#252525" stroke="#7E7E7E"/>
      <path d="M227 127.485C227 125.279 228.788 123.491 230.994 123.491C233.2 123.491 234.989 125.279 234.989 127.485H227ZM230.994 122.991C229.339 122.991 227.999 121.651 227.999 119.996C227.999 118.341 229.339 117 230.994 117C232.649 117 233.99 118.341 233.99 119.996C233.99 121.651 232.649 122.991 230.994 122.991ZM234.67 124.106C236.211 124.5 237.369 125.849 237.477 127.485H235.987C235.987 126.182 235.488 124.996 234.67 124.106ZM233.661 122.97C234.476 122.239 234.989 121.177 234.989 119.996C234.989 119.288 234.805 118.623 234.482 118.047C235.625 118.275 236.486 119.284 236.486 120.495C236.486 121.874 235.369 122.991 233.99 122.991C233.878 122.991 233.768 122.984 233.661 122.97Z" fill="white"/>
      <circle cx="232" cy="342" r="16" fill="#252525" stroke="#7E7E7E"/>
      <path d="M227 347.485C227 345.279 228.788 343.491 230.994 343.491C233.2 343.491 234.989 345.279 234.989 347.485H227ZM230.994 342.991C229.339 342.991 227.999 341.651 227.999 339.996C227.999 338.341 229.339 337 230.994 337C232.649 337 233.99 338.341 233.99 339.996C233.99 341.651 232.649 342.991 230.994 342.991ZM234.67 344.106C236.211 344.5 237.369 345.849 237.477 347.485H235.987C235.987 346.182 235.488 344.996 234.67 344.106ZM233.661 342.97C234.476 342.239 234.989 341.177 234.989 339.996C234.989 339.288 234.805 338.623 234.482 338.047C235.625 338.275 236.486 339.284 236.486 340.495C236.486 341.874 235.369 342.991 233.99 342.991C233.878 342.991 233.768 342.984 233.661 342.97Z" fill="white"/>
      <circle cx="342" cy="232" r="16" fill="#252525" stroke="#7E7E7E"/>
      <path d="M337 237.485C337 235.279 338.788 233.491 340.994 233.491C343.2 233.491 344.989 235.279 344.989 237.485H337ZM340.994 232.991C339.339 232.991 337.999 231.651 337.999 229.996C337.999 228.341 339.339 227 340.994 227C342.649 227 343.99 228.341 343.99 229.996C343.99 231.651 342.649 232.991 340.994 232.991ZM344.67 234.106C346.211 234.5 347.369 235.849 347.477 237.485H345.987C345.987 236.182 345.488 234.996 344.67 234.106ZM343.661 232.97C344.476 232.239 344.989 231.177 344.989 229.996C344.989 229.288 344.805 228.623 344.482 228.047C345.625 228.275 346.486 229.284 346.486 230.495C346.486 231.874 345.369 232.991 343.99 232.991C343.878 232.991 343.768 232.984 343.661 232.97Z" fill="white"/>
   </g>
   <circle cx="232" cy="232" r="32" fill="#252525" stroke="#7E7E7E"/>
   <path d="M222 242.97C222 238.558 225.577 234.982 229.989 234.982C234.401 234.982 237.977 238.558 237.977 242.97H222ZM229.989 233.983C226.678 233.983 223.997 231.302 223.997 227.991C223.997 224.681 226.678 222 229.989 222C233.299 222 235.98 224.681 235.98 227.991C235.98 231.302 233.299 233.983 229.989 233.983ZM237.341 236.213C240.422 237 242.738 239.698 242.954 242.97H239.974C239.974 240.364 238.976 237.991 237.341 236.213ZM235.321 233.94C236.951 232.477 237.977 230.354 237.977 227.991C237.977 226.576 237.609 225.247 236.964 224.094C239.251 224.55 240.973 226.568 240.973 228.99C240.973 231.749 238.739 233.983 235.98 233.983C235.757 233.983 235.537 233.968 235.321 233.94Z" fill="white"/>
   <defs>
      <clipPath id="bgblur_0_735_7374_clip_path" transform="translate(45.5615 45.5615)">
         <circle cx="232" cy="232" r="214.5"/>
      </clipPath>
   </defs>
</svg>