<svg id="header_logo_loading_animation" class="w-[50px] md:w-[60px] xl:w-[78px] 2xl:w-[84px] 3xl:w-[91px]" viewBox="0 0 91 88" fill="none" xmlns="http://www.w3.org/2000/svg" style="stroke-dashoffset: 0px; stroke-dasharray: 251.882; fill: black;"><path id="header_logo_loading_path_length" d="M89.9387 46C89.7908 48.0808 89.4981 50.1905 89.0511 52.3209C85.5026 69.2147 72.1357 82.4826 55.1002 86.0058C27.4103 91.7325 2.93408 71.9591 1.06194 46H36.1481C40.3242 46 44.4383 47.0396 48.0341 49.1057C49.3147 49.842 50.4508 50.6582 51.3716 51.5578C53.7088 53.8432 55.4465 57.4348 56.6948 61.0904C57.9345 64.7209 58.6516 68.2929 59.0108 70.4322L59.0116 70.4366C59.2578 71.864 61.3391 71.895 61.5848 70.4322L61.5848 70.4322C61.944 68.2929 62.6612 64.7209 63.9009 61.0904C65.1491 57.4348 66.8868 53.8432 69.224 51.5578C70.1448 50.6582 71.281 49.842 72.5616 49.1057C76.159 47.0396 80.2716 46 84.4476 46H89.9387Z" fill="trasparent" stroke="black" stroke-width="2"></path><path d="M36.1481 41.9985H1.06128C1.20922 39.9177 1.50187 37.8079 1.94891 35.6774C5.49754 18.7852 18.8644 5.51747 35.8983 1.99428C63.5898 -3.73242 88.066 16.0396 89.9381 42H84.4476C80.2714 42 76.1572 40.9603 72.5613 38.8941C71.2808 38.1579 70.1448 37.3418 69.224 36.4422C66.8868 34.1568 65.1491 30.5652 63.9009 26.9096C62.6612 23.2792 61.944 19.7071 61.5848 17.5678L61.5841 17.5634C61.3378 16.136 59.2565 16.105 59.0108 17.5678L59.0108 17.5678C58.6516 19.7071 57.9345 23.2792 56.6948 26.9096C55.4465 30.5652 53.7088 34.1568 51.3716 36.4422C50.5007 37.293 49.4373 38.0692 48.2411 38.7738L48.0343 38.8926C44.4385 40.9588 40.3243 41.9985 36.1481 41.9985Z" fill="trasparent" stroke="black" stroke-width="2"></path></svg>