<svg width="74" height="15" viewBox="0 0 74 15" fill="none" xmlns="http://www.w3.org/2000/svg">
<g clip-path="url(#clip0_737_9772)">
<g clip-path="url(#clip1_737_9772)">
<path d="M13.081 5.81126C12.973 5.47726 12.676 5.24026 12.326 5.20926L9.07802 4.92926L7.80502 1.90126C7.67002 1.57626 7.35202 1.36426 7.00002 1.36426C6.64802 1.36426 6.33002 1.57626 6.19502 1.90126L4.92602 4.92926L1.67402 5.21126C1.32302 5.24026 1.02402 5.47726 0.915017 5.81226C0.806017 6.14726 0.909016 6.51526 1.17602 6.74526L3.64302 8.90126L2.90402 12.1033C2.82402 12.4453 2.95702 12.8023 3.24102 13.0093C3.52602 13.2163 3.90602 13.2323 4.20702 13.0513L6.99602 11.3553L9.79102 13.0513C10.092 13.2323 10.473 13.2163 10.757 13.0093C11.042 12.8023 11.175 12.4453 11.095 12.1033L10.356 8.89826L12.823 6.74526C13.089 6.51426 13.191 6.14626 13.081 5.81126ZM12.249 6.08426L9.78302 8.23626C9.53802 8.44926 9.43102 8.78026 9.50502 9.09626L10.246 12.3023L7.45302 10.6073C7.17602 10.4383 6.82702 10.4383 6.54902 10.6073L3.75902 12.3023L4.49502 9.09826C4.56902 8.78226 4.46202 8.45226 4.21802 8.23926L1.75002 6.08726V6.08326L5.00102 5.80126C5.32402 5.77326 5.60602 5.56826 5.73102 5.26826L7.00002 2.24526L8.26902 5.26826C8.39402 5.56826 8.67602 5.77326 8.99902 5.80226L12.25 6.08326V6.08626L12.249 6.08426Z" fill="white" fill-opacity="0.2"/>
</g>
<path fill-rule="evenodd" clip-rule="evenodd" d="M12.7943 5.39618C12.9285 5.50315 13.0283 5.64723 13.0813 5.8105C13.1352 5.97442 13.1395 6.15065 13.0936 6.317C13.0477 6.48336 12.9536 6.63242 12.8231 6.74544L10.5538 8.72556C10.4941 8.77764 10.4497 8.84495 10.4253 8.92031C10.4008 8.99567 10.3973 9.07624 10.4151 9.15343L11.095 12.1022C11.1342 12.2697 11.123 12.4451 11.0631 12.6064C11.0031 12.7676 10.8969 12.9076 10.7577 13.0089C10.6186 13.1101 10.4527 13.168 10.2808 13.1755C10.1089 13.1829 9.93861 13.1395 9.79125 13.0507L7.22313 11.4932C7.15473 11.4517 7.07627 11.4298 6.99628 11.4298C6.91629 11.4298 6.83784 11.4517 6.76944 11.4932L4.20744 13.0507C4.06011 13.1395 3.88989 13.1828 3.71805 13.1754C3.5462 13.168 3.38036 13.1101 3.24125 13.0089C3.10213 12.9077 2.99592 12.7678 2.93589 12.6066C2.87585 12.4454 2.86465 12.2701 2.90369 12.1026L3.584 9.1565C3.60184 9.07934 3.5984 8.99879 3.57405 8.92344C3.54971 8.84809 3.50536 8.78075 3.44575 8.72862L1.176 6.74544C1.04545 6.63291 0.951028 6.48433 0.904599 6.31835C0.858169 6.15236 0.861795 5.97636 0.915022 5.81243C0.968249 5.64849 1.06871 5.50393 1.20379 5.39688C1.33887 5.28983 1.50256 5.22505 1.67432 5.21068L4.66244 4.95212C4.74195 4.94523 4.81805 4.91672 4.88252 4.86968C4.94699 4.82264 4.99736 4.75886 5.02819 4.68525L6.195 1.90144C6.26133 1.74262 6.37315 1.60697 6.51639 1.51156C6.65963 1.41614 6.82789 1.36523 7 1.36523C7.17211 1.36523 7.34038 1.41614 7.48362 1.51156C7.62686 1.60697 7.73868 1.74262 7.805 1.90144L8.97575 4.68569C9.00671 4.75913 9.05713 4.82273 9.12159 4.86961C9.18605 4.91649 9.26209 4.94487 9.3415 4.95168L12.3261 5.20894C12.4972 5.22407 12.66 5.28919 12.7943 5.39618ZM7 2.24619L7.00088 2.24662V2.24575L7 2.24619Z" fill="white"/>
<g clip-path="url(#clip2_737_9772)">
<path d="M28.081 5.81126C27.973 5.47726 27.676 5.24026 27.326 5.20926L24.078 4.92926L22.805 1.90126C22.67 1.57626 22.352 1.36426 22 1.36426C21.648 1.36426 21.33 1.57626 21.195 1.90126L19.926 4.92926L16.674 5.21126C16.323 5.24026 16.024 5.47726 15.915 5.81226C15.806 6.14726 15.909 6.51526 16.176 6.74526L18.643 8.90126L17.904 12.1033C17.824 12.4453 17.957 12.8023 18.241 13.0093C18.526 13.2163 18.906 13.2323 19.207 13.0513L21.996 11.3553L24.791 13.0513C25.092 13.2323 25.473 13.2163 25.757 13.0093C26.042 12.8023 26.175 12.4453 26.095 12.1033L25.356 8.89826L27.823 6.74526C28.089 6.51426 28.191 6.14626 28.081 5.81126ZM27.249 6.08426L24.783 8.23626C24.538 8.44926 24.431 8.78026 24.505 9.09626L25.246 12.3023L22.453 10.6073C22.176 10.4383 21.827 10.4383 21.549 10.6073L18.759 12.3023L19.495 9.09826C19.569 8.78226 19.462 8.45226 19.218 8.23926L16.75 6.08726V6.08326L20.001 5.80126C20.324 5.77326 20.606 5.56826 20.731 5.26826L22 2.24526L23.269 5.26826C23.394 5.56826 23.676 5.77326 23.999 5.80226L27.25 6.08326V6.08626L27.249 6.08426Z" fill="white" fill-opacity="0.2"/>
</g>
<path fill-rule="evenodd" clip-rule="evenodd" d="M27.7943 5.39618C27.9285 5.50315 28.0283 5.64723 28.0813 5.8105C28.1352 5.97442 28.1395 6.15065 28.0936 6.317C28.0477 6.48336 27.9536 6.63242 27.8231 6.74544L25.5538 8.72556C25.4941 8.77764 25.4497 8.84495 25.4253 8.92031C25.4008 8.99567 25.3973 9.07624 25.4151 9.15343L26.095 12.1022C26.1342 12.2697 26.123 12.4451 26.0631 12.6064C26.0031 12.7676 25.8969 12.9076 25.7577 13.0089C25.6186 13.1101 25.4527 13.168 25.2808 13.1755C25.1089 13.1829 24.9386 13.1395 24.7913 13.0507L22.2231 11.4932C22.1547 11.4517 22.0763 11.4298 21.9963 11.4298C21.9163 11.4298 21.8378 11.4517 21.7694 11.4932L19.2074 13.0507C19.0601 13.1395 18.8899 13.1828 18.718 13.1754C18.5462 13.168 18.3804 13.1101 18.2412 13.0089C18.1021 12.9077 17.9959 12.7678 17.9359 12.6066C17.8758 12.4454 17.8647 12.2701 17.9037 12.1026L18.584 9.1565C18.6018 9.07934 18.5984 8.99879 18.5741 8.92344C18.5497 8.84809 18.5054 8.78075 18.4458 8.72862L16.176 6.74544C16.0454 6.63291 15.951 6.48433 15.9046 6.31835C15.8582 6.15236 15.8618 5.97636 15.915 5.81243C15.9682 5.64849 16.0687 5.50393 16.2038 5.39688C16.3389 5.28983 16.5026 5.22505 16.6743 5.21068L19.6624 4.95212C19.7419 4.94523 19.8181 4.91672 19.8825 4.86968C19.947 4.82264 19.9974 4.75886 20.0282 4.68525L21.195 1.90144C21.2613 1.74262 21.3731 1.60697 21.5164 1.51156C21.6596 1.41614 21.8279 1.36523 22 1.36523C22.1721 1.36523 22.3404 1.41614 22.4836 1.51156C22.6269 1.60697 22.7387 1.74262 22.805 1.90144L23.9758 4.68569C24.0067 4.75913 24.0571 4.82273 24.1216 4.86961C24.1861 4.91649 24.2621 4.94487 24.3415 4.95168L27.3261 5.20894C27.4972 5.22407 27.66 5.28919 27.7943 5.39618ZM22 2.24619L22.0009 2.24662V2.24575L22 2.24619Z" fill="white"/>
<g clip-path="url(#clip3_737_9772)">
<path d="M43.081 5.81126C42.973 5.47726 42.676 5.24026 42.326 5.20926L39.078 4.92926L37.805 1.90126C37.67 1.57626 37.352 1.36426 37 1.36426C36.648 1.36426 36.33 1.57626 36.195 1.90126L34.926 4.92926L31.674 5.21126C31.323 5.24026 31.024 5.47726 30.915 5.81226C30.806 6.14726 30.909 6.51526 31.176 6.74526L33.643 8.90126L32.904 12.1033C32.824 12.4453 32.957 12.8023 33.241 13.0093C33.526 13.2163 33.906 13.2323 34.207 13.0513L36.996 11.3553L39.791 13.0513C40.092 13.2323 40.473 13.2163 40.757 13.0093C41.042 12.8023 41.175 12.4453 41.095 12.1033L40.356 8.89826L42.823 6.74526C43.089 6.51426 43.191 6.14626 43.081 5.81126ZM42.249 6.08426L39.783 8.23626C39.538 8.44926 39.431 8.78026 39.505 9.09626L40.246 12.3023L37.453 10.6073C37.176 10.4383 36.827 10.4383 36.549 10.6073L33.759 12.3023L34.495 9.09826C34.569 8.78226 34.462 8.45226 34.218 8.23926L31.75 6.08726V6.08326L35.001 5.80126C35.324 5.77326 35.606 5.56826 35.731 5.26826L37 2.24526L38.269 5.26826C38.394 5.56826 38.676 5.77326 38.999 5.80226L42.25 6.08326V6.08626L42.249 6.08426Z" fill="white" fill-opacity="0.2"/>
</g>
<path fill-rule="evenodd" clip-rule="evenodd" d="M42.7943 5.39618C42.9285 5.50315 43.0283 5.64723 43.0813 5.8105C43.1352 5.97442 43.1395 6.15065 43.0936 6.317C43.0477 6.48336 42.9536 6.63242 42.8231 6.74544L40.5538 8.72556C40.4941 8.77764 40.4497 8.84495 40.4253 8.92031C40.4008 8.99567 40.3973 9.07624 40.4151 9.15343L41.095 12.1022C41.1342 12.2697 41.123 12.4451 41.0631 12.6064C41.0031 12.7676 40.8969 12.9076 40.7577 13.0089C40.6186 13.1101 40.4527 13.168 40.2808 13.1755C40.1089 13.1829 39.9386 13.1395 39.7913 13.0507L37.2231 11.4932C37.1547 11.4517 37.0763 11.4298 36.9963 11.4298C36.9163 11.4298 36.8378 11.4517 36.7694 11.4932L34.2074 13.0507C34.0601 13.1395 33.8899 13.1828 33.718 13.1754C33.5462 13.168 33.3804 13.1101 33.2412 13.0089C33.1021 12.9077 32.9959 12.7678 32.9359 12.6066C32.8758 12.4454 32.8647 12.2701 32.9037 12.1026L33.584 9.1565C33.6018 9.07934 33.5984 8.99879 33.5741 8.92344C33.5497 8.84809 33.5054 8.78075 33.4458 8.72862L31.176 6.74544C31.0454 6.63291 30.951 6.48433 30.9046 6.31835C30.8582 6.15236 30.8618 5.97636 30.915 5.81243C30.9682 5.64849 31.0687 5.50393 31.2038 5.39688C31.3389 5.28983 31.5026 5.22505 31.6743 5.21068L34.6624 4.95212C34.7419 4.94523 34.8181 4.91672 34.8825 4.86968C34.947 4.82264 34.9974 4.75886 35.0282 4.68525L36.195 1.90144C36.2613 1.74262 36.3731 1.60697 36.5164 1.51156C36.6596 1.41614 36.8279 1.36523 37 1.36523C37.1721 1.36523 37.3404 1.41614 37.4836 1.51156C37.6269 1.60697 37.7387 1.74262 37.805 1.90144L38.9758 4.68569C39.0067 4.75913 39.0571 4.82273 39.1216 4.86961C39.1861 4.91649 39.2621 4.94487 39.3415 4.95168L42.3261 5.20894C42.4972 5.22407 42.66 5.28919 42.7943 5.39618ZM37 2.24619L37.0009 2.24662V2.24575L37 2.24619Z" fill="white"/>
<g clip-path="url(#clip4_737_9772)">
<path d="M58.081 5.81126C57.973 5.47726 57.676 5.24026 57.326 5.20926L54.078 4.92926L52.805 1.90126C52.67 1.57626 52.352 1.36426 52 1.36426C51.648 1.36426 51.33 1.57626 51.195 1.90126L49.926 4.92926L46.674 5.21126C46.323 5.24026 46.024 5.47726 45.915 5.81226C45.806 6.14726 45.909 6.51526 46.176 6.74526L48.643 8.90126L47.904 12.1033C47.824 12.4453 47.957 12.8023 48.241 13.0093C48.526 13.2163 48.906 13.2323 49.207 13.0513L51.996 11.3553L54.791 13.0513C55.092 13.2323 55.473 13.2163 55.757 13.0093C56.042 12.8023 56.175 12.4453 56.095 12.1033L55.356 8.89826L57.823 6.74526C58.089 6.51426 58.191 6.14626 58.081 5.81126ZM57.249 6.08426L54.783 8.23626C54.538 8.44926 54.431 8.78026 54.505 9.09626L55.246 12.3023L52.453 10.6073C52.176 10.4383 51.827 10.4383 51.549 10.6073L48.759 12.3023L49.495 9.09826C49.569 8.78226 49.462 8.45226 49.218 8.23926L46.75 6.08726V6.08326L50.001 5.80126C50.324 5.77326 50.606 5.56826 50.731 5.26826L52 2.24526L53.269 5.26826C53.394 5.56826 53.676 5.77326 53.999 5.80226L57.25 6.08326V6.08626L57.249 6.08426Z" fill="white" fill-opacity="0.2"/>
</g>
<path fill-rule="evenodd" clip-rule="evenodd" d="M57.7943 5.39618C57.9285 5.50315 58.0283 5.64723 58.0813 5.8105C58.1352 5.97442 58.1395 6.15065 58.0936 6.317C58.0477 6.48336 57.9536 6.63242 57.8231 6.74544L55.5538 8.72556C55.4941 8.77764 55.4497 8.84495 55.4253 8.92031C55.4008 8.99567 55.3973 9.07624 55.4151 9.15343L56.095 12.1022C56.1342 12.2697 56.123 12.4451 56.0631 12.6064C56.0031 12.7676 55.8969 12.9076 55.7577 13.0089C55.6186 13.1101 55.4527 13.168 55.2808 13.1755C55.1089 13.1829 54.9386 13.1395 54.7913 13.0507L52.2231 11.4932C52.1547 11.4517 52.0763 11.4298 51.9963 11.4298C51.9163 11.4298 51.8378 11.4517 51.7694 11.4932L49.2074 13.0507C49.0601 13.1395 48.8899 13.1828 48.718 13.1754C48.5462 13.168 48.3804 13.1101 48.2412 13.0089C48.1021 12.9077 47.9959 12.7678 47.9359 12.6066C47.8758 12.4454 47.8647 12.2701 47.9037 12.1026L48.584 9.1565C48.6018 9.07934 48.5984 8.99879 48.5741 8.92344C48.5497 8.84809 48.5054 8.78075 48.4458 8.72862L46.176 6.74544C46.0454 6.63291 45.951 6.48433 45.9046 6.31835C45.8582 6.15236 45.8618 5.97636 45.915 5.81243C45.9682 5.64849 46.0687 5.50393 46.2038 5.39688C46.3389 5.28983 46.5026 5.22505 46.6743 5.21068L49.6624 4.95212C49.7419 4.94523 49.8181 4.91672 49.8825 4.86968C49.947 4.82264 49.9974 4.75886 50.0282 4.68525L51.195 1.90144C51.2613 1.74262 51.3731 1.60697 51.5164 1.51156C51.6596 1.41614 51.8279 1.36523 52 1.36523C52.1721 1.36523 52.3404 1.41614 52.4836 1.51156C52.6269 1.60697 52.7387 1.74262 52.805 1.90144L53.9758 4.68569C54.0067 4.75913 54.0571 4.82273 54.1216 4.86961C54.1861 4.91649 54.2621 4.94487 54.3415 4.95168L57.3261 5.20894C57.4972 5.22407 57.66 5.28919 57.7943 5.39618ZM52 2.24619L52.0009 2.24662V2.24575L52 2.24619Z" fill="white"/>
<g clip-path="url(#clip5_737_9772)">
<path d="M73.081 5.81126C72.973 5.47726 72.676 5.24026 72.326 5.20926L69.078 4.92926L67.805 1.90126C67.67 1.57626 67.352 1.36426 67 1.36426C66.648 1.36426 66.33 1.57626 66.195 1.90126L64.926 4.92926L61.674 5.21126C61.323 5.24026 61.024 5.47726 60.915 5.81226C60.806 6.14726 60.909 6.51526 61.176 6.74526L63.643 8.90126L62.904 12.1033C62.824 12.4453 62.957 12.8023 63.241 13.0093C63.526 13.2163 63.906 13.2323 64.207 13.0513L66.996 11.3553L69.791 13.0513C70.092 13.2323 70.473 13.2163 70.757 13.0093C71.042 12.8023 71.175 12.4453 71.095 12.1033L70.356 8.89826L72.823 6.74526C73.089 6.51426 73.191 6.14626 73.081 5.81126ZM72.249 6.08426L69.783 8.23626C69.538 8.44926 69.431 8.78026 69.505 9.09626L70.246 12.3023L67.453 10.6073C67.176 10.4383 66.827 10.4383 66.549 10.6073L63.759 12.3023L64.495 9.09826C64.569 8.78226 64.462 8.45226 64.218 8.23926L61.75 6.08726V6.08326L65.001 5.80126C65.324 5.77326 65.606 5.56826 65.731 5.26826L67 2.24526L68.269 5.26826C68.394 5.56826 68.676 5.77326 68.999 5.80226L72.25 6.08326V6.08626L72.249 6.08426Z" fill="white" fill-opacity="0.2"/>
</g>
<path fill-rule="evenodd" clip-rule="evenodd" d="M72.7943 5.39618C72.9285 5.50315 73.0283 5.64723 73.0813 5.8105C73.1352 5.97442 73.1395 6.15065 73.0936 6.317C73.0477 6.48336 72.9536 6.63242 72.8231 6.74544L70.5538 8.72556C70.4941 8.77764 70.4497 8.84495 70.4253 8.92031C70.4008 8.99567 70.3973 9.07624 70.4151 9.15343L71.095 12.1022C71.1342 12.2697 71.123 12.4451 71.0631 12.6064C71.0031 12.7676 70.8969 12.9076 70.7577 13.0089C70.6186 13.1101 70.4527 13.168 70.2808 13.1755C70.1089 13.1829 69.9386 13.1395 69.7913 13.0507L67.2231 11.4932C67.1547 11.4517 67.0763 11.4298 66.9963 11.4298C66.9163 11.4298 66.8378 11.4517 66.7694 11.4932L64.2074 13.0507C64.0601 13.1395 63.8899 13.1828 63.718 13.1754C63.5462 13.168 63.3804 13.1101 63.2412 13.0089C63.1021 12.9077 62.9959 12.7678 62.9359 12.6066C62.8758 12.4454 62.8647 12.2701 62.9037 12.1026L63.584 9.1565C63.6018 9.07934 63.5984 8.99879 63.5741 8.92344C63.5497 8.84809 63.5054 8.78075 63.4458 8.72862L61.176 6.74544C61.0454 6.63291 60.951 6.48433 60.9046 6.31835C60.8582 6.15236 60.8618 5.97636 60.915 5.81243C60.9682 5.64849 61.0687 5.50393 61.2038 5.39688C61.3389 5.28983 61.5026 5.22505 61.6743 5.21068L64.6624 4.95212C64.7419 4.94523 64.8181 4.91672 64.8825 4.86968C64.947 4.82264 64.9974 4.75886 65.0282 4.68525L66.195 1.90144C66.2613 1.74262 66.3731 1.60697 66.5164 1.51156C66.6596 1.41614 66.8279 1.36523 67 1.36523C67.1721 1.36523 67.3404 1.41614 67.4836 1.51156C67.6269 1.60697 67.7387 1.74262 67.805 1.90144L68.9758 4.68569C69.0067 4.75913 69.0571 4.82273 69.1216 4.86961C69.1861 4.91649 69.2621 4.94487 69.3415 4.95168L72.3261 5.20894C72.4972 5.22407 72.66 5.28919 72.7943 5.39618ZM67 2.24619L67.0009 2.24662V2.24575L67 2.24619Z" fill="white"/>
</g>
<defs>
<clipPath id="clip0_737_9772">
<rect width="74" height="14" fill="white" transform="translate(0 0.490234)"/>
</clipPath>
<clipPath id="clip1_737_9772">
<rect width="14" height="14" fill="white" transform="translate(0 0.490234)"/>
</clipPath>
<clipPath id="clip2_737_9772">
<rect width="14" height="14" fill="white" transform="translate(15 0.490234)"/>
</clipPath>
<clipPath id="clip3_737_9772">
<rect width="14" height="14" fill="white" transform="translate(30 0.490234)"/>
</clipPath>
<clipPath id="clip4_737_9772">
<rect width="14" height="14" fill="white" transform="translate(45 0.490234)"/>
</clipPath>
<clipPath id="clip5_737_9772">
<rect width="14" height="14" fill="white" transform="translate(60 0.490234)"/>
</clipPath>
</defs>
</svg>
